<?xml version="1.0" encoding="UTF-8"?>
<svg version="1.1" xmlns="http://www.w3.org/2000/svg" width="819" height="819">
<path d="M0 0 C3.47294592 -0.00217512 6.94556747 -0.02035466 10.41845703 -0.03930664 C29.92330837 -0.08981037 48.99853568 1.34973959 68.25830078 4.43530273 C68.9287442 4.54201294 69.59918762 4.64872314 70.28994751 4.75866699 C114.74036421 11.88365503 156.49117947 26.81755989 196.50830078 47.18530273 C197.44109863 47.65935547 198.37389648 48.1334082 199.33496094 48.62182617 C223.81097373 61.21159191 246.48626572 77.47475562 267.50830078 95.18530273 C268.51763672 96.00901367 269.52697266 96.83272461 270.56689453 97.68139648 C279.65706751 105.22143065 288.02212722 113.48330368 296.38330078 121.81030273 C296.9650708 122.38689636 297.54684082 122.96348999 298.14624023 123.55755615 C305.41758144 130.7778821 312.14991635 138.13852424 318.50830078 146.18530273 C319.39534608 147.24778787 320.28737747 148.30616671 321.18798828 149.35717773 C334.87681587 165.43302508 346.76828006 183.02415444 357.50830078 201.18530273 C357.8629541 201.78487793 358.21760742 202.38445312 358.58300781 203.00219727 C376.49915322 233.57793646 390.00947015 266.05660456 399.50830078 300.18530273 C399.77094727 301.12873535 400.03359375 302.07216797 400.30419922 303.04418945 C404.82453456 319.56380804 407.98056765 336.25317418 410.50830078 353.18530273 C410.75821777 354.78317627 410.75821777 354.78317627 411.01318359 356.41333008 C416.36782763 391.91694817 416.03582868 430.7282335 410.50830078 466.18530273 C410.25089111 467.93109619 410.25089111 467.93109619 409.98828125 469.7121582 C400.66572845 532.10411344 377.34166095 591.26273915 341.50830078 643.18530273 C340.86876465 644.11850342 340.86876465 644.11850342 340.21630859 645.07055664 C333.96347052 654.16221295 327.18754105 662.77767801 320.12011719 671.2487793 C319.10602954 672.46715906 318.09710866 673.68987655 317.09570312 674.91870117 C309.27065248 684.52050855 300.61306466 693.28991675 291.88330078 702.06030273 C291.01786652 702.93363754 291.01786652 702.93363754 290.13494873 703.82461548 C282.91467128 711.09578328 275.55204263 717.82368008 267.50830078 724.18530273 C266.48047157 725.04835863 265.45706185 725.91676335 264.44189453 726.79467773 C246.98648154 741.76426509 227.47974666 754.81514044 207.50830078 766.18530273 C206.55890625 766.72815918 205.60951172 767.27101563 204.63134766 767.83032227 C123.11913305 814.02308837 24.48869439 830.49868834 -104.10229492 805.63110352 C-160.53201606 789.81957913 -212.6366063 763.42628846 -257.61962891 725.7487793 C-259.36062939 724.2947669 -261.11612133 722.86036723 -262.87451172 721.42749023 C-271.85927577 713.98389419 -280.104427 705.7843063 -288.36669922 697.56030273 C-288.94892242 696.98334656 -289.53114563 696.40639038 -290.13101196 695.81195068 C-297.40183813 688.59201248 -304.1337163 681.2315731 -310.49169922 673.18530273 C-311.37874451 672.1228176 -312.27077591 671.06443876 -313.17138672 670.01342773 C-361.70008388 613.02243106 -391.48064267 540.78878779 -402.49169922 467.18530273 C-402.65686035 466.10909668 -402.82202148 465.03289062 -402.9921875 463.92407227 C-408.2275938 428.05585436 -408.07428067 388.99552033 -402.49169922 353.18530273 C-402.32009277 352.02144043 -402.14848633 350.85757812 -401.97167969 349.65844727 C-392.63394556 287.16488974 -369.24849762 228.21844957 -333.49169922 176.18530273 C-333.0638916 175.56026855 -332.63608398 174.93523437 -332.1953125 174.29125977 C-325.46864866 164.51211539 -318.12124099 155.27289733 -310.49169922 146.18530273 C-310.08351959 145.69454254 -309.67533997 145.20378235 -309.25479126 144.69815063 C-301.96382989 135.94837329 -294.30912441 127.6847727 -286.2277832 119.66064453 C-284.41948314 117.86314469 -282.62223944 116.05507957 -280.82568359 114.24584961 C-274.01866798 107.43110436 -267.04755555 101.16883301 -259.49169922 95.18530273 C-258.38961818 94.25082136 -257.29330037 93.30943633 -256.20654297 92.35717773 C-186.81443408 31.846478 -91.20576478 -0.00637001 0 0 Z " fill="#FDFEFD" transform="translate(405.49169921875,-0.185302734375)"/>
<path d="M0 0 C3.63 0 7.26 0 11 0 C11 0.66 11 1.32 11 2 C12.299375 1.938125 12.299375 1.938125 13.625 1.875 C17.15866371 2.00587643 19.69266209 2.80372884 23 4 C24.66088045 4.36106097 26.32618981 4.70462173 28 5 C28 5.66 28 6.32 28 7 C30.31 7 32.62 7 35 7 C35 7.66 35 8.32 35 9 C39.29 9.33 43.58 9.66 48 10 C48 10.66 48 11.32 48 12 C48.70125 11.95875 49.4025 11.9175 50.125 11.875 C53.40561109 12.01763526 55.9052318 12.92630491 59 14 C60.99369031 14.36920191 62.99279077 14.71325582 65 15 C65 15.66 65 16.32 65 17 C67.31 17 69.62 17 72 17 C72 17.66 72 18.32 72 19 C72.92683594 19.04898438 73.85367187 19.09796875 74.80859375 19.1484375 C76.00613281 19.22320312 77.20367187 19.29796875 78.4375 19.375 C80.22994141 19.47941406 80.22994141 19.47941406 82.05859375 19.5859375 C83.02925781 19.72257812 83.99992187 19.85921875 85 20 C85.33 20.66 85.66 21.32 86 22 C87.77999274 22.33918428 89.5757637 22.59763057 91.375 22.8125 C96.74977217 23.69326912 96.74977217 23.69326912 98.9375 26.375 C99.288125 27.24125 99.63875 28.1075 100 29 C100.66 29.66 101.32 30.32 102 31 C104.97860455 33.97860455 106.67355676 37.02067027 108 41 C109.93330603 42.09166275 109.93330603 42.09166275 112 43 C114 45 114 45 114.875 47.4375 C116.17395658 50.39623443 117.43319698 51.13323417 120 53 C121.01866229 54.65532623 122.01810813 56.32260138 123 58 C123.721875 58.70125 124.44375 59.4025 125.1875 60.125 C127 62 127 62 127 65 C127.99 65.33 128.98 65.66 130 66 C130 66.66 130 67.32 130 68 C131.32 68.66 132.64 69.32 134 70 C134 71.32 134 72.64 134 74 C134.86625 74.37125 134.86625 74.37125 135.75 74.75 C138.37223092 76.20679496 140.09253081 77.68378742 142 80 C142 81.32 142 82.64 142 84 C143.32 84.66 144.64 85.32 146 86 C146 86.99 146 87.98 146 89 C146.66 89 147.32 89 148 89 C149.69140625 90.609375 149.69140625 90.609375 151.5625 92.75 C152.18253906 93.44609375 152.80257813 94.1421875 153.44140625 94.859375 C155 97 155 97 155.52734375 99.203125 C155.68332031 99.79609375 155.83929688 100.3890625 156 101 C156.99 101.33 157.98 101.66 159 102 C160.46484375 103.92578125 160.46484375 103.92578125 161.9375 106.3125 C164.04144171 109.61794458 166.16829188 112.27720373 169 115 C169 115.66 169 116.32 169 117 C169.66 117 170.32 117 171 117 C172.03013277 118.64821244 173.02065076 120.32111559 174 122 C176.8186304 126.07321367 179.74637842 129.86639213 183.3125 133.3125 C186 136 186 136 187 139 C187.845625 139.66 188.69125 140.32 189.5625 141 C190.7690625 141.99 190.7690625 141.99 192 143 C192 143.99 192 144.98 192 146 C192.66 146 193.32 146 194 146 C194.33 147.65 194.66 149.3 195 151 C195.66 151 196.32 151 197 151 C197.33 154.96 197.66 158.92 198 163 C198.66 163 199.32 163 200 163 C200 165.64 200 168.28 200 171 C200.99 171.33 201.98 171.66 203 172 C203 172.66 203 173.32 203 174 C203.53625 174.0825 204.0725 174.165 204.625 174.25 C207.87340691 175.27581271 210.28751859 176.96563894 213 179 C213 179.66 213 180.32 213 181 C214.65 181.33 216.3 181.66 218 182 C218 182.66 218 183.32 218 184 C218.639375 184.103125 219.27875 184.20625 219.9375 184.3125 C220.9584375 184.6528125 220.9584375 184.6528125 222 185 C222.33 185.99 222.66 186.98 223 188 C224.82987524 188.57271442 224.82987524 188.57271442 227 189 C228.60590715 189.81092994 230.18941006 190.66745577 231.75 191.5625 C232.54921875 192.01753906 233.3484375 192.47257813 234.171875 192.94140625 C234.77515625 193.29074219 235.3784375 193.64007813 236 194 C236 194.66 236 195.32 236 196 C236.86625 196.185625 236.86625 196.185625 237.75 196.375 C240.02335767 197.00648824 241.9253529 197.88858191 244 199 C244 199.66 244 200.32 244 201 C245.65 201.33 247.3 201.66 249 202 C249 202.66 249 203.32 249 204 C250.65 204.33 252.3 204.66 254 205 C254 205.66 254 206.32 254 207 C255.32 207 256.64 207 258 207 C258.66 207.99 259.32 208.98 260 210 C262.27964425 211.37196938 264.62400854 212.53070506 267.00390625 213.71875 C269 215 269 215 270 218 C271.32 218 272.64 218 274 218 C274.33 218.66 274.66 219.32 275 220 C277.27775528 221.32723048 279.61561248 222.49585503 281.96875 223.68359375 C284 225 284 225 285 228 C285.99 228 286.98 228 288 228 C288.33 228.66 288.66 229.32 289 230 C290.64363134 230.72159424 292.31050386 231.39351421 294 232 C294 232.66 294 233.32 294 234 C295.65 234.33 297.3 234.66 299 235 C299 235.66 299 236.32 299 237 C299.53625 237.0825 300.0725 237.165 300.625 237.25 C303.87340691 238.27581271 306.28751859 239.96563894 309 242 C309 242.66 309 243.32 309 244 C310.65 244.33 312.3 244.66 314 245 C314 245.66 314 246.32 314 247 C314.53625 247.0825 315.0725 247.165 315.625 247.25 C318.87340691 248.27581271 321.28751859 249.96563894 324 252 C324 252.66 324 253.32 324 254 C325.32 254 326.64 254 328 254 C328 254.66 328 255.32 328 256 C328.763125 256.0825 329.52625 256.165 330.3125 256.25 C333 257 333 257 334.3125 258.8125 C336.13566505 261.1758621 337.28217366 261.7605211 339.9375 263 C343.2622831 264.55523924 345.66623412 266.08279265 348 269 C348 269.66 348 270.32 348 271 C348.99 271 349.98 271 351 271 C351 271.66 351 272.32 351 273 C351.8353125 273.4021875 351.8353125 273.4021875 352.6875 273.8125 C355.21225334 275.10899496 357.63714484 276.42476323 360 278 C360 278.66 360 279.32 360 280 C360.58249512 280.26103516 361.16499023 280.52207031 361.76513672 280.79101562 C364.14007555 282.07577607 365.80292259 283.48673006 367.7578125 285.34375 C368.81367554 286.34112183 368.81367554 286.34112183 369.89086914 287.35864258 C370.62813232 288.06529053 371.36539551 288.77193848 372.125 289.5 C372.87966553 290.21889404 373.63433105 290.93778809 374.41186523 291.6784668 C376.61290674 293.78050033 378.80654527 295.89005635 381 298 C381.58378418 298.55510254 382.16756836 299.11020508 382.76904297 299.68212891 C384.20817341 301.05057778 385.63593207 302.43096004 387.0625 303.8125 C387.83722656 304.56144531 388.61195313 305.31039063 389.41015625 306.08203125 C391 308 391 308 391 311 C391.99 311.33 392.98 311.66 394 312 C394.66 312.99 395.32 313.98 396 315 C396.74636719 315.44214844 397.49273438 315.88429688 398.26171875 316.33984375 C401.55930498 318.33909361 404.12677721 320.83374827 406.8125 323.5625 C407.31458984 324.05685547 407.81667969 324.55121094 408.33398438 325.06054688 C412 328.74651361 412 328.74651361 412 331 C412.83337891 331.10054688 412.83337891 331.10054688 413.68359375 331.203125 C416.94847093 332.3262868 418.65629175 334.2966112 421.0625 336.75 C421.91972656 337.61109375 422.77695312 338.4721875 423.66015625 339.359375 C426.62786097 342.70857098 428.58604597 345.75813792 430 350 C430.66 350 431.32 350 432 350 C432.33 351.98 432.66 353.96 433 356 C433.66 356 434.32 356 435 356 C435 356.99 435 357.98 435 359 C435.66 359 436.32 359 437 359 C437 361.64 437 364.28 437 367 C436.34 367 435.68 367 435 367 C434.938125 367.556875 434.87625 368.11375 434.8125 368.6875 C433.61774785 372.08794844 431.76312633 373.72809613 429 376 C425.6875 376.8125 425.6875 376.8125 423 377 C423 377.66 423 378.32 423 379 C421.35 379.33 419.7 379.66 418 380 C418 380.66 418 381.32 418 382 C417.34 382 416.68 382 416 382 C416 382.66 416 383.32 416 384 C414.58521865 384.64995297 413.16808513 385.29478722 411.75 385.9375 C410.96109375 386.29714844 410.1721875 386.65679687 409.359375 387.02734375 C407.24176302 387.90033279 405.23330638 388.51338508 403 389 C403 389.66 403 390.32 403 391 C400.44663408 394.00932412 398.7688138 395.12061011 395 396 C394.34 396.99 393.68 397.98 393 399 C391.08203125 400.24609375 391.08203125 400.24609375 388.8125 401.4375 C388.01457031 401.86546875 387.21664062 402.2934375 386.39453125 402.734375 C385.60433594 403.15203125 384.81414063 403.5696875 384 404 C379.26887371 406.22062193 379.26887371 406.22062193 376 410 C374.2578125 410.8515625 374.2578125 410.8515625 372.125 411.625 C371.42632813 411.88539063 370.72765625 412.14578125 370.0078125 412.4140625 C368 413 368 413 365 413 C365 413.66 365 414.32 365 415 C363.02 415.33 361.04 415.66 359 416 C359 416.66 359 417.32 359 418 C357.02 418.33 355.04 418.66 353 419 C353 419.66 353 420.32 353 421 C351.35 421.33 349.7 421.66 348 422 C348 422.66 348 423.32 348 424 C345.09399739 425.25664978 343.20395416 426 340 426 C340 426.66 340 427.32 340 428 C338.39967863 428.84069415 336.79458829 429.67231505 335.1875 430.5 C334.29417969 430.9640625 333.40085937 431.428125 332.48046875 431.90625 C330 433 330 433 327 433 C327 433.66 327 434.32 327 435 C325.02 435.33 323.04 435.66 321 436 C321 436.66 321 437.32 321 438 C318.46080994 439.29673602 315.91885762 440.58747837 313.375 441.875 C312.66214844 442.23980469 311.94929687 442.60460937 311.21484375 442.98046875 C307.21248163 445.00000927 303.31082927 446.7081111 299 448 C299 448.66 299 449.32 299 450 C298.01 450 297.02 450 296 450 C296 450.66 296 451.32 296 452 C294.56570999 452.67354499 293.12742943 453.33859701 291.6875 454 C290.88699219 454.37125 290.08648438 454.7425 289.26171875 455.125 C287 456 287 456 284 456 C284.33 461.28 284.66 466.56 285 472 C285.66 472 286.32 472 287 472 C287.33 475.96 287.66 479.92 288 484 C288.66 484 289.32 484 290 484 C290.33 487.63 290.66 491.26 291 495 C291.66 495 292.32 495 293 495 C293 496.98 293 498.96 293 501 C293.66 501 294.32 501 295 501 C295.33 505.29 295.66 509.58 296 514 C296.66 514 297.32 514 298 514 C298 515.98 298 517.96 298 520 C298.66 520 299.32 520 300 520 C300.50838564 522.03959477 301.00633886 524.08179138 301.5 526.125 C301.91765625 527.83042969 301.91765625 527.83042969 302.34375 529.5703125 C302.96453765 532.81466698 303.12006768 535.70814457 303 539 C303.66 539 304.32 539 305 539 C305.12117187 539.79664063 305.24234375 540.59328125 305.3671875 541.4140625 C306.21941704 546.80277545 307.15140269 551.85033606 309 557 C309 557.99 309 558.98 309 560 C309.66 560 310.32 560 311 560 C311.83211276 565.03854106 312.1078534 569.8125662 312.0625 574.9375 C312.05798828 575.62134766 312.05347656 576.30519531 312.04882812 577.00976562 C312.0371956 578.67321604 312.01926694 580.3366205 312 582 C311.34 582 310.68 582 310 582 C309.7525 582.53625 309.505 583.0725 309.25 583.625 C305.47111368 590.804884 300.46186248 597.02340144 294 602 C290.8759566 602.82370276 289.23212346 602.59854138 286 602 C286 601.34 286 600.68 286 600 C285.443125 600.01160156 284.88625 600.02320313 284.3125 600.03515625 C279.10221657 600.09676433 274.1562049 599.74999344 269 599 C269 598.34 269 597.68 269 597 C266.36 597 263.72 597 261 597 C261 596.34 261 595.68 261 595 C257.7 595 254.4 595 251 595 C251 594.34 251 593.68 251 593 C249.1128125 593.0309375 249.1128125 593.0309375 247.1875 593.0625 C241.75485053 593.07115072 236.39895124 592.56512387 231 592 C231 591.34 231 590.68 231 590 C229.2365625 590.061875 229.2365625 590.061875 227.4375 590.125 C223.33806816 590.13224281 219.91339363 589.25523947 216 588 C214.33753959 587.64628502 212.67225729 587.30404678 211 587 C211 586.34 211 585.68 211 585 C209.68 585 208.36 585 207 585 C207 584.34 207 583.68 207 583 C205.02 583 203.04 583 201 583 C201 582.34 201 581.68 201 581 C199.68 581 198.36 581 197 581 C197 580.34 197 579.68 197 579 C196.33613281 578.95101562 195.67226563 578.90203125 194.98828125 578.8515625 C186.21792619 578.10896309 186.21792619 578.10896309 182 576 C182 575.34 182 574.68 182 574 C179.03 573.67 176.06 573.34 173 573 C173 572.34 173 571.68 173 571 C171.35 571 169.7 571 168 571 C168 570.34 168 569.68 168 569 C165.36 568.67 162.72 568.34 160 568 C160 567.34 160 566.68 160 566 C156.7 565.67 153.4 565.34 150 565 C150 564.34 150 563.68 150 563 C149.34 562.87625 148.68 562.7525 148 562.625 C144.30301417 561.85479462 140.65994058 560.93049337 137 560 C137 559.34 137 558.68 137 558 C133.7 557.67 130.4 557.34 127 557 C127 556.34 127 555.68 127 555 C126.278125 554.855625 125.55625 554.71125 124.8125 554.5625 C122.20833333 554.04166667 119.60416667 553.52083333 117 553 C117 552.34 117 551.68 117 551 C115.35 551 113.7 551 112 551 C112 550.34 112 549.68 112 549 C109.03 548.67 106.06 548.34 103 548 C103 547.34 103 546.68 103 546 C102.40832031 545.95101562 101.81664062 545.90203125 101.20703125 545.8515625 C96.80895528 545.43543133 93.03071103 544.95034405 89 543 C89 542.34 89 541.68 89 541 C88.0409375 540.814375 88.0409375 540.814375 87.0625 540.625 C83.02988724 539.8020178 79.01576093 538.90114025 75 538 C75 537.34 75 536.68 75 536 C74.0409375 535.8453125 74.0409375 535.8453125 73.0625 535.6875 C69.6601297 534.92370259 66.455826 533.82711908 63.16015625 532.69921875 C60.79768847 531.93451399 58.45122463 531.39535881 56 531 C56 530.34 56 529.68 56 529 C54.68 529 53.36 529 52 529 C52 528.34 52 527.68 52 527 C51.0409375 526.8453125 51.0409375 526.8453125 50.0625 526.6875 C45.93522674 525.76096927 41.99357051 524.38339371 38 523 C38 523.66 38 524.32 38 525 C36.56445975 525.50559908 35.1264798 526.0042749 33.6875 526.5 C32.88699219 526.7784375 32.08648437 527.056875 31.26171875 527.34375 C29 528 29 528 26 528 C26 528.66 26 529.32 26 530 C24.989375 530.2475 23.97875 530.495 22.9375 530.75 C20.17949591 531.5284689 17.89515685 532.52979456 15.4375 534 C12.27591599 535.83946706 9.47862615 536.94128769 6 538 C5.113125 538.37125 4.22625 538.7425 3.3125 539.125 C1 540 1 540 -2 540 C-2 540.66 -2 541.32 -2 542 C-3.05058594 542.38671875 -4.10117187 542.7734375 -5.18359375 543.171875 C-15.37420456 546.93338496 -15.37420456 546.93338496 -25.30078125 551.3359375 C-27 552 -27 552 -30 552 C-30 552.66 -30 553.32 -30 554 C-31.76858691 554.67260351 -33.53996016 555.33788395 -35.3125 556 C-36.29863281 556.37125 -37.28476562 556.7425 -38.30078125 557.125 C-41 558 -41 558 -44 558 C-44 558.66 -44 559.32 -44 560 C-44.83144531 560.26554688 -45.66289062 560.53109375 -46.51953125 560.8046875 C-47.60621094 561.15789063 -48.69289063 561.51109375 -49.8125 561.875 C-50.89144531 562.22304688 -51.97039062 562.57109375 -53.08203125 562.9296875 C-56.13315802 563.91959653 -56.13315802 563.91959653 -59 566 C-60.32 566 -61.64 566 -63 566 C-63 566.66 -63 567.32 -63 568 C-63.90363281 568.33773437 -64.80726563 568.67546875 -65.73828125 569.0234375 C-67.50751953 569.69246094 -67.50751953 569.69246094 -69.3125 570.375 C-70.48425781 570.81585937 -71.65601563 571.25671875 -72.86328125 571.7109375 C-76.08553593 572.91489648 -76.08553593 572.91489648 -79 575 C-80.38276205 575.49637612 -81.78064663 575.95169899 -83.1875 576.375 C-86.31078054 577.36900043 -89.11627655 578.50794768 -92 580.0625 C-96.16552172 582.25443784 -100.38842858 583.18870503 -105 584 C-105 584.66 -105 585.32 -105 586 C-107.97 586.66 -110.94 587.32 -114 588 C-114 588.66 -114 589.32 -114 590 C-114.83402344 590.31453125 -115.66804687 590.6290625 -116.52734375 590.953125 C-122.50979286 593.22823737 -128.41748415 595.54268583 -134.1953125 598.30078125 C-136 599 -136 599 -139 599 C-139 599.66 -139 600.32 -139 601 C-140.76858691 601.67260351 -142.53996016 602.33788395 -144.3125 603 C-145.29863281 603.37125 -146.28476563 603.7425 -147.30078125 604.125 C-150 605 -150 605 -153 605 C-153 605.66 -153 606.32 -153 607 C-153.78246094 607.27714844 -154.56492187 607.55429687 -155.37109375 607.83984375 C-156.38300781 608.20207031 -157.39492187 608.56429687 -158.4375 608.9375 C-159.44683594 609.29714844 -160.45617187 609.65679688 -161.49609375 610.02734375 C-163.90313745 610.76877639 -163.90313745 610.76877639 -165 612 C-166.66617115 612.04063832 -168.33388095 612.042721 -170 612 C-170 612.66 -170 613.32 -170 614 C-174.29 614 -178.58 614 -183 614 C-183 613.34 -183 612.68 -183 612 C-183.66386719 612.05800781 -184.32773438 612.11601563 -185.01171875 612.17578125 C-192.23705722 612.54495913 -192.23705722 612.54495913 -196.0625 609.8125 C-197.96676604 607.04824285 -198.71610268 605.31213541 -199 602 C-199.66 602 -200.32 602 -201 602 C-202.4375 599.8125 -202.4375 599.8125 -204 597 C-205.87012492 593.35056462 -205.87012492 593.35056462 -209 591 C-210 589 -211 587 -212 585 C-212.66 584.67 -213.32 584.34 -214 584 C-215.60672661 581.62204462 -216.85753449 579.62328662 -217.5 576.8125 C-217.89906646 574.59453719 -217.89906646 574.59453719 -221 573 C-221.29296875 570.6171875 -221.29296875 570.6171875 -221.1875 567.875 C-221.16042969 566.96492187 -221.13335937 566.05484375 -221.10546875 565.1171875 C-221.07066406 564.41851563 -221.03585938 563.71984375 -221 563 C-220.34 563 -219.68 563 -219 563 C-218.67 560.03 -218.34 557.06 -218 554 C-217.34 554 -216.68 554 -216 554 C-215.67 551.69 -215.34 549.38 -215 547 C-214.34 547 -213.68 547 -213 547 C-212.67 544.03 -212.34 541.06 -212 538 C-211.34 538 -210.68 538 -210 538 C-210 536.68 -210 535.36 -210 534 C-209.34 534 -208.68 534 -208 534 C-207.67 531.69 -207.34 529.38 -207 527 C-206.34 527 -205.68 527 -205 527 C-204.87625 525.7625 -204.7525 524.525 -204.625 523.25 C-204.24253695 520.1237803 -203.69450477 517.71120763 -202 515 C-201.34 515 -200.68 515 -200 515 C-199.67 512.03 -199.34 509.06 -199 506 C-198.34 506 -197.68 506 -197 506 C-196.67 503.69 -196.34 501.38 -196 499 C-195.34 499 -194.68 499 -194 499 C-193.86464844 498.28972656 -193.72929687 497.57945312 -193.58984375 496.84765625 C-193.002712 494.01309304 -192.31290624 491.23305484 -191.5625 488.4375 C-191.31628906 487.50808594 -191.07007813 486.57867188 -190.81640625 485.62109375 C-190.07578382 483.24330595 -189.18647398 481.18290666 -188 479 C-187.34 479 -186.68 479 -186 479 C-185.67 476.36 -185.34 473.72 -185 471 C-184.34 471 -183.68 471 -183 471 C-182.87753906 470.31550781 -182.75507813 469.63101562 -182.62890625 468.92578125 C-181.91575403 465.60807311 -180.95146135 462.42563463 -179.9375 459.1875 C-179.57527344 458.02605469 -179.21304688 456.86460937 -178.83984375 455.66796875 C-178.42412109 454.34732422 -178.42412109 454.34732422 -178 453 C-177.34 453 -176.68 453 -176 453 C-176 452.01 -176 451.02 -176 450 C-175.34 450 -174.68 450 -174 450 C-174.020625 449.195625 -174.04125 448.39125 -174.0625 447.5625 C-174 445 -174 445 -173 444 C-172.66638081 441.08391002 -172.66638081 441.08391002 -173 438 C-174.4166747 436.2488427 -174.4166747 436.2488427 -176 435 C-176 434.34 -176 433.68 -176 433 C-176.67804688 432.97421875 -177.35609375 432.9484375 -178.0546875 432.921875 C-182.4821026 431.53610582 -184.95961997 428.54199523 -188.125 425.25 C-188.74503906 424.62867188 -189.36507812 424.00734375 -190.00390625 423.3671875 C-193.20910451 420.09995315 -195.74344315 417.00854198 -198 413 C-199.45833358 411.37485532 -199.45833358 411.37485532 -201 410 C-203.55673041 407.54402744 -205.21841819 405.07727768 -207 402 C-207.66 401.34 -208.32 400.68 -209 400 C-211 398 -211 398 -212.4375 395.5 C-213.89979437 392.84289795 -213.89979437 392.84289795 -216.5625 391 C-219 389 -219 389 -219.8125 386.6875 C-221.41902038 383.05169071 -223.94977023 381.28279892 -227.02734375 378.84375 C-229 377 -229 377 -230.2578125 374.7890625 C-232.88824297 370.57801462 -236.40949614 367.34299305 -239.9375 363.875 C-240.65357422 363.15957031 -241.36964844 362.44414062 -242.10742188 361.70703125 C-245.93529496 357.86777409 -245.93529496 357.86777409 -250.13500977 354.45751953 C-252.75563485 352.40945935 -253.65141385 350.00366916 -255 347 C-256.35703212 344.0281331 -256.35703212 344.0281331 -258.5 341.625 C-261.60384572 338.26250047 -262 334.42727283 -262 330 C-261.34 330 -260.68 330 -260 330 C-260 330.66 -260 331.32 -260 332 C-255.38 332.33 -250.76 332.66 -246 333 C-246 333.66 -246 334.32 -246 335 C-244.9275 334.979375 -243.855 334.95875 -242.75 334.9375 C-239.85209576 334.9857984 -237.71387859 335.13155885 -235 336 C-235 336.66 -235 337.32 -235 338 C-233.7625 338.12375 -232.525 338.2475 -231.25 338.375 C-228.1237803 338.75746305 -225.71120763 339.30549523 -223 341 C-223 341.66 -223 342.32 -223 343 C-222.31550781 343.13277344 -221.63101563 343.26554687 -220.92578125 343.40234375 C-217.66587046 344.06825343 -214.4283893 344.80956612 -211.1875 345.5625 C-209.44533203 345.96662109 -209.44533203 345.96662109 -207.66796875 346.37890625 C-206.78753906 346.58386719 -205.90710938 346.78882813 -205 347 C-205 347.66 -205 348.32 -205 349 C-204.44699219 349.11601562 -203.89398438 349.23203125 -203.32421875 349.3515625 C-200.65242218 350.09697129 -198.31668819 351.18252943 -195.8125 352.375 C-190.95098364 354.62933218 -186.11368204 356.40721379 -181 358 C-181 358.66 -181 359.32 -181 360 C-179.081875 360.37125 -179.081875 360.37125 -177.125 360.75 C-171.830253 361.91164561 -166.96810741 363.86340266 -162 366 C-162 366.66 -162 367.32 -162 368 C-155.565 369.485 -155.565 369.485 -149 371 C-149 371.66 -149 372.32 -149 373 C-147.68 373 -146.36 373 -145 373 C-145 373.66 -145 374.32 -145 375 C-143.824375 375.103125 -142.64875 375.20625 -141.4375 375.3125 C-137.97821863 375.74113696 -135.24173949 376.66911861 -132.07421875 378.16796875 C-127.56117886 379.97828418 -122.72797902 380.90534476 -118 382 C-118 382.66 -118 383.32 -118 384 C-116.02 384 -114.04 384 -112 384 C-112 384.66 -112 385.32 -112 386 C-107.38 386 -102.76 386 -98 386 C-98 385.34 -98 384.68 -98 384 C-94.62902617 382.50178941 -92.79557881 382 -89 382 C-89 381.34 -89 380.68 -89 380 C-87.75264433 379.3490741 -86.50198168 378.70448331 -85.25 378.0625 C-84.55390625 377.70285156 -83.8578125 377.34320313 -83.140625 376.97265625 C-81.09775567 376.04441818 -79.18884624 375.46833422 -77 375 C-77 374.34 -77 373.68 -77 373 C-70.375 370 -70.375 370 -67 370 C-67 369.34 -67 368.68 -67 368 C-65.02 367.67 -63.04 367.34 -61 367 C-61 366.34 -61 365.68 -61 365 C-59.35 364.67 -57.7 364.34 -56 364 C-56 363.34 -56 362.68 -56 362 C-49.5 358 -49.5 358 -45 358 C-45 357.34 -45 356.68 -45 356 C-42.35261084 354.5393715 -41.10551666 354 -38 354 C-38 353.34 -38 352.68 -38 352 C-36.35 351.67 -34.7 351.34 -33 351 C-33 350.34 -33 349.68 -33 349 C-32.05898438 348.54109375 -31.11796875 348.0821875 -30.1484375 347.609375 C-28.89051714 346.98980228 -27.63271069 346.36999823 -26.375 345.75 C-25.44880859 345.29947266 -25.44880859 345.29947266 -24.50390625 344.83984375 C-21.41528575 343.3117894 -18.50363023 341.72311425 -15.6640625 339.765625 C-13 338 -13 338 -11 338 C-11 337.34 -11 336.68 -11 336 C-10.01 335.67 -9.02 335.34 -8 335 C-7.34 329.39 -6.68 323.78 -6 318 C-6.99 318 -7.98 318 -9 318 C-9 317.34 -9 316.68 -9 316 C-10.65 315.67 -12.3 315.34 -14 315 C-14 314.34 -14 313.68 -14 313 C-15.98 312.67 -17.96 312.34 -20 312 C-20 311.34 -20 310.68 -20 310 C-21.98 309.67 -23.96 309.34 -26 309 C-26 308.34 -26 307.68 -26 307 C-28.64 306.34 -31.28 305.68 -34 305 C-34 304.34 -34 303.68 -34 303 C-34.763125 302.855625 -35.52625 302.71125 -36.3125 302.5625 C-39 302 -39 302 -42 301 C-42 300.34 -42 299.68 -42 299 C-43.65 298.67 -45.3 298.34 -47 298 C-47 297.34 -47 296.68 -47 296 C-48.65 295.67 -50.3 295.34 -52 295 C-52 294.34 -52 293.68 -52 293 C-52.99 293 -53.98 293 -55 293 C-55 292.34 -55 291.68 -55 291 C-56.2684375 290.6596875 -56.2684375 290.6596875 -57.5625 290.3125 C-60.95774049 289.01613545 -63.20070508 287.52818609 -66.05859375 285.3671875 C-68.94747157 283.3327665 -72.04904838 281.74227483 -75.1796875 280.11328125 C-77 279 -77 279 -78 277 C-78.99 276.67 -79.98 276.34 -81 276 C-81 275.34 -81 274.68 -81 274 C-82.32 273.67 -83.64 273.34 -85 273 C-85 272.34 -85 271.68 -85 271 C-86.98 270.34 -88.96 269.68 -91 269 C-91 268.34 -91 267.68 -91 267 C-92.32 266.67 -93.64 266.34 -95 266 C-95 265.34 -95 264.68 -95 264 C-95.9075 263.896875 -96.815 263.79375 -97.75 263.6875 C-101.07929974 262.98322506 -102.43719059 262.12094572 -105 260 C-105.99 259.67 -106.98 259.34 -108 259 C-108 258.34 -108 257.68 -108 257 C-108.62648437 256.79503906 -109.25296875 256.59007812 -109.8984375 256.37890625 C-111.12433594 255.97478516 -111.12433594 255.97478516 -112.375 255.5625 C-113.18710938 255.29566406 -113.99921875 255.02882813 -114.8359375 254.75390625 C-117 254 -117 254 -119 253 C-124.9255252 252.25008913 -129.15037559 253.08911146 -134.2734375 256.125 C-136 257 -136 257 -139 257 C-139 257.66 -139 258.32 -139 259 C-141.26727333 260.17407021 -143.53834624 261.33939739 -145.8125 262.5 C-146.77639648 263.00080078 -146.77639648 263.00080078 -147.75976562 263.51171875 C-150.69547699 265.00239084 -152.66126517 266 -156 266 C-156 266.66 -156 267.32 -156 268 C-158.53919006 269.29673602 -161.08114238 270.58747837 -163.625 271.875 C-164.33785156 272.23980469 -165.05070312 272.60460937 -165.78515625 272.98046875 C-169.78751837 275.00000927 -173.68917073 276.7081111 -178 278 C-178 278.66 -178 279.32 -178 280 C-179.60149886 280.67305018 -181.20631029 281.33822227 -182.8125 282 C-183.70582031 282.37125 -184.59914063 282.7425 -185.51953125 283.125 C-188 284 -188 284 -191 284 C-191 284.66 -191 285.32 -191 286 C-193.43431639 287.17374173 -195.87204182 288.33915763 -198.3125 289.5 C-199.00279297 289.83386719 -199.69308594 290.16773438 -200.40429688 290.51171875 C-205.66015625 293 -205.66015625 293 -209 293 C-209 293.66 -209 294.32 -209 295 C-211.43504509 296.0063655 -213.87270864 297.00526413 -216.3125 298 C-217.00279297 298.28617187 -217.69308594 298.57234375 -218.40429688 298.8671875 C-221.41545674 300.08910744 -223.71886984 301 -227 301 C-227 301.66 -227 302.32 -227 303 C-228.98 303.33 -230.96 303.66 -233 304 C-233 304.66 -233 305.32 -233 306 C-234.4540625 306.433125 -234.4540625 306.433125 -235.9375 306.875 C-239.10664203 307.64214682 -239.10664203 307.64214682 -240 310 C-241.32 310 -242.64 310 -244 310 C-244.65824396 306.64360752 -245.10075295 303.42560024 -245 300 C-243.125 297.4375 -243.125 297.4375 -240 295 C-238.42603969 293.40707631 -236.86432297 291.80199757 -235.3125 290.1875 C-233.91694663 288.74972821 -232.48801898 287.34184815 -231 286 C-230.34 286 -229.68 286 -229 286 C-229 284.68 -229 283.36 -229 282 C-228.34 282 -227.68 282 -227 282 C-227 281.34 -227 280.68 -227 280 C-226.34 280 -225.68 280 -225 280 C-225 279.34 -225 278.68 -225 278 C-224.34 277.67 -223.68 277.34 -223 277 C-221.97388051 275.34928604 -220.97691857 273.68029994 -220 272 C-218.4375 269.6875 -218.4375 269.6875 -217 268 C-216.34 268 -215.68 268 -215 268 C-215 267.34 -215 266.68 -215 266 C-214.34 266 -213.68 266 -213 266 C-213 264.68 -213 263.36 -213 262 C-212.34 262 -211.68 262 -211 262 C-210.67 261.01 -210.34 260.02 -210 259 C-209.34 259 -208.68 259 -208 259 C-208 258.34 -208 257.68 -208 257 C-207.28666504 256.57283691 -206.57333008 256.14567383 -205.83837891 255.70556641 C-202.5582269 253.73454095 -200.25698916 251.4494802 -197.5859375 248.7109375 C-197.08961823 248.20704498 -196.59329895 247.70315247 -196.0819397 247.18399048 C-194.50800275 245.58576906 -192.94074839 243.98124188 -191.375 242.375 C-189.30523502 240.25206674 -187.22895697 238.13582609 -185.1484375 236.0234375 C-184.23239746 235.08419434 -183.31635742 234.14495117 -182.37255859 233.17724609 C-180 231 -180 231 -177 230 C-176.38125 229.175 -175.7625 228.35 -175.125 227.5 C-172.64068442 224.57727579 -171.61070988 224.66513077 -168 224 C-167.56880859 223.08154297 -167.56880859 223.08154297 -167.12890625 222.14453125 C-165.69709581 219.42458685 -164.25327709 218.68154643 -161.5625 217.25 C-160.78003906 216.82203125 -159.99757813 216.3940625 -159.19140625 215.953125 C-157 215 -157 215 -154 215 C-153.67 214.01 -153.34 213.02 -153 212 C-152.01 212 -151.02 212 -150 212 C-149.7525 211.38125 -149.505 210.7625 -149.25 210.125 C-147.76749514 207.60474173 -146.71612936 206.98768341 -144 206 C-143.01 206 -142.02 206 -141 206 C-140.75378906 205.38382813 -140.50757813 204.76765625 -140.25390625 204.1328125 C-138.75202458 201.57821004 -137.6230159 201.0349869 -134.9375 199.875 C-131.81740843 198.65170572 -131.81740843 198.65170572 -130 196 C-128.68 196 -127.36 196 -126 196 C-126 195.34 -126 194.68 -126 194 C-124.68 194 -123.36 194 -122 194 C-121.67 193.01 -121.34 192.02 -121 191 C-118.01540871 189.04457812 -116.73585209 189 -113 189 C-113 188.34 -113 187.68 -113 187 C-107.68670645 184.91010454 -103.71271928 183.3887202 -98 185 C-98 185.66 -98 186.32 -98 187 C-95.69 187 -93.38 187 -91 187 C-91 187.66 -91 188.32 -91 189 C-87.7 189.33 -84.4 189.66 -81 190 C-81 190.66 -81 191.32 -81 192 C-80.401875 192.144375 -79.80375 192.28875 -79.1875 192.4375 C-77.43849596 192.8872439 -75.71322977 193.42892341 -74 194 C-73.67 191.69 -73.34 189.38 -73 187 C-72.34 187 -71.68 187 -71 187 C-71 185.02 -71 183.04 -71 181 C-70.34 181 -69.68 181 -69 181 C-68.67 178.03 -68.34 175.06 -68 172 C-67.34 172 -66.68 172 -66 172 C-66 170.68 -66 169.36 -66 168 C-65.34 168 -64.68 168 -64 168 C-63.86722656 167.39671875 -63.73445312 166.7934375 -63.59765625 166.171875 C-63.42105469 165.37265625 -63.24445313 164.5734375 -63.0625 163.75 C-62.88847656 162.96109375 -62.71445312 162.1721875 -62.53515625 161.359375 C-62.052444 159.23121297 -61.53836822 157.11467158 -61 155 C-60.34 155 -59.68 155 -59 155 C-58.87753906 154.30519531 -58.75507813 153.61039063 -58.62890625 152.89453125 C-57.9414143 149.73036021 -56.98142199 146.75191616 -55.9375 143.6875 C-55.57527344 142.61886719 -55.21304688 141.55023438 -54.83984375 140.44921875 C-54.56269531 139.64097656 -54.28554688 138.83273438 -54 138 C-53.34 138 -52.68 138 -52 138 C-51.86722656 137.31292969 -51.73445312 136.62585938 -51.59765625 135.91796875 C-51.42105469 135.01691406 -51.24445313 134.11585938 -51.0625 133.1875 C-50.88847656 132.29417969 -50.71445312 131.40085938 -50.53515625 130.48046875 C-50 128 -50 128 -49 125 C-48.34 125 -47.68 125 -47 125 C-46.67 122.36 -46.34 119.72 -46 117 C-45.34 117 -44.68 117 -44 117 C-43.67 114.03 -43.34 111.06 -43 108 C-42.34 108 -41.68 108 -41 108 C-41 106.68 -41 105.36 -41 104 C-40.34 104 -39.68 104 -39 104 C-38.855625 103.0925 -38.71125 102.185 -38.5625 101.25 C-38.13590527 98.78523044 -37.64925779 96.41152893 -37 94 C-36.34 94 -35.68 94 -35 94 C-34.67 91.36 -34.34 88.72 -34 86 C-33.34 86 -32.68 86 -32 86 C-32 84.68 -32 83.36 -32 82 C-31.34 82 -30.68 82 -30 82 C-29.814375 80.453125 -29.814375 80.453125 -29.625 78.875 C-29.06110186 75.37883154 -28.21317941 72.31602373 -27 69 C-26.34 69 -25.68 69 -25 69 C-24.67 66.36 -24.34 63.72 -24 61 C-23.34 61 -22.68 61 -22 61 C-21.67 59.02 -21.34 57.04 -21 55 C-20.34 55 -19.68 55 -19 55 C-18.89042969 54.45472656 -18.78085937 53.90945312 -18.66796875 53.34765625 C-17.48924237 47.74151857 -15.89801696 42.40121396 -14 37 C-13.67 36.01 -13.34 35.02 -13 34 C-12.34 34 -11.68 34 -11 34 C-10.89042969 33.25234375 -10.78085937 32.5046875 -10.66796875 31.734375 C-10.50941406 30.74953125 -10.35085938 29.7646875 -10.1875 28.75 C-10.03667969 27.77546875 -9.88585937 26.8009375 -9.73046875 25.796875 C-8.95480869 22.82696802 -7.85283042 21.39323929 -6 19 C-5.22685512 16.65744063 -5.22685512 16.65744063 -4.8125 14.25 C-4.65394531 13.45078125 -4.49539063 12.6515625 -4.33203125 11.828125 C-4.16767578 10.92320313 -4.16767578 10.92320313 -4 10 C-3.34 10 -2.68 10 -2 10 C-2.061875 8.63875 -2.061875 8.63875 -2.125 7.25 C-2 4 -2 4 0 0 Z " fill="#020202" transform="translate(338,79)"/>
<path d="M0 0 C1.32 0 2.64 0 4 0 C4 0.66 4 1.32 4 2 C5.918125 2.185625 5.918125 2.185625 7.875 2.375 C11.75 2.75 11.75 2.75 14 5 C16.192613 5.57228527 16.192613 5.57228527 18.6875 5.9375 C22.42801498 6.6122804 25.36056078 7.62643926 28.796875 9.26953125 C34.25383018 11.07884086 40.29864338 11.37629947 46 12 C46 12.66 46 13.32 46 14 C48.64 14 51.28 14 54 14 C54 14.66 54 15.32 54 16 C56.64 16 59.28 16 62 16 C62 16.66 62 17.32 62 18 C66.29 18.33 70.58 18.66 75 19 C75 19.66 75 20.32 75 21 C76.98 21 78.96 21 81 21 C81 21.66 81 22.32 81 23 C81.99 23 82.98 23 84 23 C87.54784971 28.37899794 88.70887831 32.58076669 89 39 C89.66 39 90.32 39 91 39 C91 41.31 91 43.62 91 46 C91.66 46 92.32 46 93 46 C93.13277344 46.78246094 93.26554688 47.56492188 93.40234375 48.37109375 C93.66724609 49.88896484 93.66724609 49.88896484 93.9375 51.4375 C94.11152344 52.44683594 94.28554688 53.45617187 94.46484375 54.49609375 C94.74751097 56.9287438 94.74751097 56.9287438 96 58 C96.04080783 59.99958364 96.04254356 62.00045254 96 64 C96.66 64 97.32 64 98 64 C98.33 67.96 98.66 71.92 99 76 C99.66 76 100.32 76 101 76 C101.13277344 76.78246094 101.26554688 77.56492187 101.40234375 78.37109375 C101.66724609 79.88896484 101.66724609 79.88896484 101.9375 81.4375 C102.11152344 82.44683594 102.28554688 83.45617187 102.46484375 84.49609375 C102.74751097 86.9287438 102.74751097 86.9287438 104 88 C104.04063832 89.66617115 104.042721 91.33388095 104 93 C104.66 93 105.32 93 106 93 C106.33 96.63 106.66 100.26 107 104 C107.66 104 108.32 104 109 104 C109 105.98 109 107.96 109 110 C109.66 110 110.32 110 111 110 C111.13277344 110.78246094 111.26554688 111.56492187 111.40234375 112.37109375 C111.66724609 113.88896484 111.66724609 113.88896484 111.9375 115.4375 C112.11152344 116.44683594 112.28554688 117.45617187 112.46484375 118.49609375 C112.74751097 120.9287438 112.74751097 120.9287438 114 122 C114.04063832 123.66617115 114.042721 125.33388095 114 127 C114.66 127 115.32 127 116 127 C116.12117187 127.71285156 116.24234375 128.42570313 116.3671875 129.16015625 C117.11912896 133.45779089 117.88879121 137.62312578 119.125 141.8125 C120.00761891 145.0277546 120.16174668 147.68419311 120 151 C120.66 151 121.32 151 122 151 C122.27714844 152.21558594 122.55429687 153.43117187 122.83984375 154.68359375 C123.20553898 156.26827307 123.57143475 157.85290612 123.9375 159.4375 C124.11990234 160.23994141 124.30230469 161.04238281 124.49023438 161.86914062 C125.09661008 165.74952729 125.09661008 165.74952729 127 169 C127.04080783 170.99958364 127.04254356 173.00045254 127 175 C127.66 175 128.32 175 129 175 C129.33 178.96 129.66 182.92 130 187 C130.66 187 131.32 187 132 187 C132.33 190.96 132.66 194.92 133 199 C133.66 199 134.32 199 135 199 C135.27714844 200.14339844 135.55429687 201.28679687 135.83984375 202.46484375 C136.20554378 203.95577465 136.57143929 205.44665761 136.9375 206.9375 C137.11990234 207.69224609 137.30230469 208.44699219 137.49023438 209.22460938 C138.13839179 212.91279821 138.13839179 212.91279821 140 216 C140.04080783 217.99958364 140.04254356 220.00045254 140 222 C140.66 222 141.32 222 142 222 C142.12117187 222.72445312 142.24234375 223.44890625 142.3671875 224.1953125 C143.25318164 229.30681717 144.26522758 234.10181904 146 239 C149.46059139 250.31937283 149.46059139 250.31937283 149 256 C149.66 256 150.32 256 151 256 C151 257.65 151 259.3 151 261 C151.66 261 152.32 261 153 261 C153.12117187 261.79664063 153.24234375 262.59328125 153.3671875 263.4140625 C154.38591389 269.97847423 154.38591389 269.97847423 156.125 276.375 C157.1233705 279.37011149 157.14934298 281.86379752 157 285 C157.66 285 158.32 285 159 285 C159 286.65 159 288.3 159 290 C159.66 290 160.32 290 161 290 C161.33 293.63 161.66 297.26 162 301 C162.66 301 163.32 301 164 301 C164.19335938 301.85722656 164.38671875 302.71445312 164.5859375 303.59765625 C166.19389095 310.81825038 166.19389095 310.81825038 168.1875 317.9375 C169.02355336 321.08877805 169.15828523 323.75515271 169 327 C169.66 327 170.32 327 171 327 C171.33 331.29 171.66 335.58 172 340 C172.66 340 173.32 340 174 340 C174.10957031 340.71285156 174.21914063 341.42570312 174.33203125 342.16015625 C175.06149587 346.56659703 175.76002217 350.45285054 177.5625 354.5625 C179.42316844 359.01192454 179.72117339 363.22148887 180 368 C180.66 368 181.32 368 182 368 C182.33 371.3 182.66 374.6 183 378 C183.66 378 184.32 378 185 378 C185.2475 379.27875 185.495 380.5575 185.75 381.875 C186.5286114 385.44877032 187.61566229 388.64333652 189.0625 392 C191.05524931 396.72629763 191.67058467 400.89406241 192 406 C192.66 406 193.32 406 194 406 C194.33 409.63 194.66 413.26 195 417 C195.66 417 196.32 417 197 417 C197.33 420.63 197.66 424.26 198 428 C198.66 428 199.32 428 200 428 C200 429.65 200 431.3 200 433 C200.66 433 201.32 433 202 433 C202.33 436.63 202.66 440.26 203 444 C203.66 444 204.32 444 205 444 C208.44419134 457.6332574 208.44419134 457.6332574 208 464 C208.66 464 209.32 464 210 464 C210 466.64 210 469.28 210 472 C210.66 472 211.32 472 212 472 C212 474.97 212 477.94 212 481 C212.66 481 213.32 481 214 481 C214.144375 482.134375 214.28875 483.26875 214.4375 484.4375 C214.61171478 487.80777201 214.61171478 487.80777201 216 489 C216.54355355 492.19280616 216.96590986 495.39639601 217.40234375 498.60546875 C217.98171476 501.8961446 218.93252277 504.84186197 220 508 C220.125 511.375 220.125 511.375 220 514 C220.66 514 221.32 514 222 514 C222.33 517.63 222.66 521.26 223 525 C223.66 525 224.32 525 225 525 C225 526.98 225 528.96 225 531 C225.66 531 226.32 531 227 531 C227 532.32 227 533.64 227 535 C227.66 535 228.32 535 229 535 C229.61512213 537.03231526 230.19091786 539.07655969 230.75 541.125 C231.07484375 542.26195312 231.3996875 543.39890625 231.734375 544.5703125 C232.08750814 549.1298845 230.88913888 550.51468961 228 554 C226.0276904 556.2009734 223.97979907 558.30092792 221.875 560.375 C221.06869141 561.19291016 221.06869141 561.19291016 220.24609375 562.02734375 C216.25352444 566 216.25352444 566 214 566 C214 566.66 214 567.32 214 568 C208.36235459 566.97497356 203.12485658 565.56242829 198 563 C192.73511021 561.34826987 187.39171519 560.14925449 182 559 C182 558.34 182 557.68 182 557 C181.28070312 556.86078125 180.56140625 556.7215625 179.8203125 556.578125 C171.89732677 554.95402266 164.69303166 552.6254793 157.41015625 549.0859375 C155.26257813 548.11830911 153.29824374 547.47991169 151 547 C151 546.34 151 545.68 151 545 C148.03 544.67 145.06 544.34 142 544 C142 543.34 142 542.68 142 542 C140.1746875 541.814375 140.1746875 541.814375 138.3125 541.625 C134.88820548 541.19472215 132.18327529 540.36426084 129 539 C127.33749394 538.48633534 125.67028339 537.98778188 124 537.5 C120.57569558 536.49553737 117.31311346 535.32524538 114 534 C112.34080104 533.63128912 110.6752357 533.28718326 109 533 C109 532.34 109 531.68 109 531 C107.35 531 105.7 531 104 531 C104 530.34 104 529.68 104 529 C102.68 529 101.36 529 100 529 C100 528.34 100 527.68 100 527 C98.3603125 526.814375 98.3603125 526.814375 96.6875 526.625 C93 526 93 526 90 524 C89.8125 521.375 89.8125 521.375 90 519 C89.34 519 88.68 519 88 519 C88 515.7 88 512.4 88 509 C87.34 509 86.68 509 86 509 C85.25492456 502.62694402 84.89650183 496.41688675 85 490 C84.34 490 83.68 490 83 490 C82.1679418 484.27959989 81.87963336 478.77759884 82 473 C81.34 473 80.68 473 80 473 C79.17648136 466.61773055 78.87913782 460.43255401 79 454 C78.34 454 77.68 454 77 454 C77 451.03 77 448.06 77 445 C76.34 445 75.68 445 75 445 C74.67 439.39 74.34 433.78 74 428 C73.34 428 72.68 428 72 428 C71.67 420.74 71.34 413.48 71 406 C70.34 406 69.68 406 69 406 C69 402.7 69 399.4 69 396 C68.34 396 67.68 396 67 396 C66.25492456 389.62694402 65.89650183 383.41688675 66 377 C65.34 377 64.68 377 64 377 C64 374.03 64 371.06 64 368 C63.34 368 62.68 368 62 368 C61.25492456 361.62694402 60.89650183 355.41688675 61 349 C60.34 349 59.68 349 59 349 C58.17648136 342.61773055 57.87913782 336.43255401 58 330 C57.34 330 56.68 330 56 330 C56 327.03 56 324.06 56 321 C55.34 321 54.68 321 54 321 C53.22959149 314.93303301 52.90293888 309.11485027 53 303 C52.34 303 51.68 303 51 303 C50.25492456 296.62694402 49.89650183 290.41688675 50 284 C49.34 284 48.68 284 48 284 C48 281.03 48 278.06 48 275 C47.34 275 46.68 275 46 275 C45.202163 268.30386804 44.87089147 261.74233419 45 255 C44.34 255 43.68 255 43 255 C42.202163 248.30386804 41.87089147 241.74233419 42 235 C41.34 235 40.68 235 40 235 C39.93941406 233.85660156 39.87882812 232.71320313 39.81640625 231.53515625 C39.73201572 230.04425695 39.64736698 228.55337225 39.5625 227.0625 C39.52318359 226.30775391 39.48386719 225.55300781 39.44335938 224.77539062 C39.55961976 221.08055813 39.55961976 221.08055813 38 218 C36.84300167 209.04397586 36.87838556 200.01298127 37 191 C36.34 191 35.68 191 35 191 C35 186.05 35 181.1 35 176 C34.34 176 33.68 176 33 176 C32.93941406 174.92878906 32.87882812 173.85757813 32.81640625 172.75390625 C32.73201463 171.35675609 32.64736594 169.95962143 32.5625 168.5625 C32.52318359 167.85544922 32.48386719 167.14839844 32.44335938 166.41992188 C32.52375562 162.91309581 32.52375562 162.91309581 31 160 C30.76807135 158.48530552 30.58784762 156.96245438 30.4375 155.4375 C30.35371094 154.61121094 30.26992188 153.78492188 30.18359375 152.93359375 C30.12300781 152.29550781 30.06242187 151.65742188 30 151 C29.34 151 28.68 151 28 151 C28 153.97 28 156.94 28 160 C27.34 160 26.68 160 26 160 C26 162.64 26 165.28 26 168 C25.34 168 24.68 168 24 168 C24.01160156 168.556875 24.02320313 169.11375 24.03515625 169.6875 C24.0967465 174.89627542 23.82717826 179.85311307 23 185 C22.67 185.33 22.34 185.66 22 186 C21.599617 188.85528607 21.2481773 191.69736487 20.9375 194.5625 C20.84662109 195.36880859 20.75574219 196.17511719 20.66210938 197.00585938 C20.43752551 199.00347377 20.21826764 201.0016856 20 203 C19.34 203 18.68 203 18 203 C18.01160156 203.63808594 18.02320313 204.27617187 18.03515625 204.93359375 C18.04417969 205.75988281 18.05320312 206.58617187 18.0625 207.4375 C18.07410156 208.26121094 18.08570313 209.08492187 18.09765625 209.93359375 C18 212 18 212 17 213 C16.60056824 215.52195967 16.24920152 218.02963656 15.9375 220.5625 C15.84662109 221.27341797 15.75574219 221.98433594 15.66210938 222.71679688 C15.43760497 224.47738403 15.21831603 226.23863478 15 228 C13.35 228 11.7 228 10 228 C10 227.34 10 226.68 10 226 C8.35 226 6.7 226 5 226 C5 225.34 5 224.68 5 224 C3.02 224 1.04 224 -1 224 C-1 223.34 -1 222.68 -1 222 C-1.86625 221.87625 -2.7325 221.7525 -3.625 221.625 C-6.89513853 221.01941879 -9.87256899 220.11693965 -13 219 C-13 218.34 -13 217.68 -13 217 C-13.99 217 -14.98 217 -16 217 C-16 216.34 -16 215.68 -16 215 C-16.721875 214.87625 -17.44375 214.7525 -18.1875 214.625 C-20.95721894 214.0095069 -23.3970354 213.11555626 -26 212 C-26 211.34 -26 210.68 -26 210 C-27.98 209.67 -29.96 209.34 -32 209 C-32 208.34 -32 207.68 -32 207 C-33.175625 206.7834375 -33.175625 206.7834375 -34.375 206.5625 C-37 206 -37 206 -39 205 C-39 204.34 -39 203.68 -39 203 C-40.98 202.67 -42.96 202.34 -45 202 C-45 201.34 -45 200.68 -45 200 C-47.97 199.01 -50.94 198.02 -54 197 C-54 196.34 -54 195.68 -54 195 C-56.31 194.67 -58.62 194.34 -61 194 C-61 193.34 -61 192.68 -61 192 C-61.99 192 -62.98 192 -64 192 C-64 191.34 -64 190.68 -64 190 C-64.763125 189.855625 -65.52625 189.71125 -66.3125 189.5625 C-69 189 -69 189 -72 188 C-71 184 -70 180 -69 176 C-68.34 176 -67.68 176 -67 176 C-66.34 172.7 -65.68 169.4 -65 166 C-64.34 166 -63.68 166 -63 166 C-62.88785156 165.16210938 -62.77570313 164.32421875 -62.66015625 163.4609375 C-61.93580244 159.66343766 -60.77179115 156.25153492 -59.4375 152.625 C-59.20353516 151.98433594 -58.96957031 151.34367188 -58.72851562 150.68359375 C-58.15700381 149.1206839 -57.57915771 147.56009273 -57 146 C-56.34 146 -55.68 146 -55 146 C-55 144.68 -55 143.36 -55 142 C-54.34 142 -53.68 142 -53 142 C-52.67 139.36 -52.34 136.72 -52 134 C-51.34 134 -50.68 134 -50 134 C-49.67 131.03 -49.34 128.06 -49 125 C-48.34 125 -47.68 125 -47 125 C-47 123.68 -47 122.36 -47 121 C-46.34 121 -45.68 121 -45 121 C-44.67 118.36 -44.34 115.72 -44 113 C-43.34 113 -42.68 113 -42 113 C-41.87625 112.34 -41.7525 111.68 -41.625 111 C-40.85479462 107.30301417 -39.93049337 103.65994058 -39 100 C-38.34 100 -37.68 100 -37 100 C-36.855625 98.906875 -36.71125 97.81375 -36.5625 96.6875 C-36 93 -36 93 -35 90 C-34.34 90 -33.68 90 -33 90 C-32.67 87.36 -32.34 84.72 -32 82 C-31.34 82 -30.68 82 -30 82 C-29.67 79.36 -29.34 76.72 -29 74 C-28.34 74 -27.68 74 -27 74 C-26.67 71.36 -26.34 68.72 -26 66 C-25.34 66 -24.68 66 -24 66 C-24 64.68 -24 63.36 -24 62 C-23.34 62 -22.68 62 -22 62 C-21.89042969 61.26394531 -21.78085937 60.52789062 -21.66796875 59.76953125 C-21.50941406 58.79371094 -21.35085938 57.81789062 -21.1875 56.8125 C-21.03667969 55.84957031 -20.88585937 54.88664062 -20.73046875 53.89453125 C-19.94415531 50.77871168 -18.66544757 48.73133402 -17 46 C-16.21104661 43.74923999 -15.48297134 41.47635042 -14.8125 39.1875 C-14.46832031 38.02605469 -14.12414062 36.86460938 -13.76953125 35.66796875 C-13.51558594 34.78753906 -13.26164062 33.90710938 -13 33 C-12.34 33 -11.68 33 -11 33 C-11 31.02 -11 29.04 -11 27 C-10.34 27 -9.68 27 -9 27 C-9 25.68 -9 24.36 -9 23 C-8.34 23 -7.68 23 -7 23 C-6.67 20.36 -6.34 17.72 -6 15 C-5.34 15 -4.68 15 -4 15 C-4 14.01 -4 13.02 -4 12 C-3.34 12 -2.68 12 -2 12 C-1.93941406 11.38511719 -1.87882812 10.77023438 -1.81640625 10.13671875 C-1.73261719 9.32847656 -1.64882813 8.52023438 -1.5625 7.6875 C-1.44068359 6.48673828 -1.44068359 6.48673828 -1.31640625 5.26171875 C-1 3 -1 3 0 0 Z " fill="#FDFDFD" transform="translate(343,89)"/>
<path d="M0 0 C0 2.31 0 4.62 0 7 C-0.66 7 -1.32 7 -2 7 C-2.33 11.95 -2.66 16.9 -3 22 C-3.66 22 -4.32 22 -5 22 C-5 24.31 -5 26.62 -5 29 C-5.66 29 -6.32 29 -7 29 C-7.33 33.95 -7.66 38.9 -8 44 C-8.66 44 -9.32 44 -10 44 C-10 46.64 -10 49.28 -10 52 C-10.66 52 -11.32 52 -12 52 C-12.33 56.62 -12.66 61.24 -13 66 C-13.66 66 -14.32 66 -15 66 C-15.33 70.95 -15.66 75.9 -16 81 C-16.66 81 -17.32 81 -18 81 C-18 83.31 -18 85.62 -18 88 C-18.66 88 -19.32 88 -20 88 C-19.9690625 89.7634375 -19.9690625 89.7634375 -19.9375 91.5625 C-19.95136313 95.46497197 -20.15799634 99.17271063 -21 103 C-24.22791555 105.1519437 -25.28400809 105.20086443 -29 105 C-29 105.66 -29 106.32 -29 107 C-31.64 107.33 -34.28 107.66 -37 108 C-37 108.66 -37 109.32 -37 110 C-38.32 110 -39.64 110 -41 110 C-41 110.66 -41 111.32 -41 112 C-42.32 112 -43.64 112 -45 112 C-45 112.66 -45 113.32 -45 114 C-46.65 114 -48.3 114 -50 114 C-50 114.66 -50 115.32 -50 116 C-50.68964844 116.24234375 -51.37929688 116.4846875 -52.08984375 116.734375 C-57.561547 118.6858741 -62.88218375 120.75986723 -68.125 123.265625 C-70 124 -70 124 -73 124 C-73 124.66 -73 125.32 -73 126 C-74.43554025 126.50559908 -75.8735202 127.0042749 -77.3125 127.5 C-78.51326172 127.91765625 -78.51326172 127.91765625 -79.73828125 128.34375 C-82 129 -82 129 -85 129 C-85 129.66 -85 130.32 -85 131 C-86.65 131 -88.3 131 -90 131 C-90 131.66 -90 132.32 -90 133 C-92.31 133.33 -94.62 133.66 -97 134 C-97 134.66 -97 135.32 -97 136 C-97.83402344 136.23074219 -98.66804688 136.46148438 -99.52734375 136.69921875 C-105.87817015 138.5397217 -111.5071266 140.48438778 -117.09765625 144.046875 C-119 145 -119 145 -123 145 C-123 145.66 -123 146.32 -123 147 C-125.22763988 147.81690177 -127.4569486 148.62861872 -129.6875 149.4375 C-130.62625977 149.78264648 -130.62625977 149.78264648 -131.58398438 150.13476562 C-135.03242308 151.38053667 -138.3813479 152.39804449 -142 153 C-142 153.66 -142 154.32 -142 155 C-144.64 155.33 -147.28 155.66 -150 156 C-150 156.66 -150 157.32 -150 158 C-154.455 158.99 -154.455 158.99 -159 160 C-159 160.66 -159 161.32 -159 162 C-160.98 162.33 -162.96 162.66 -165 163 C-165 163.66 -165 164.32 -165 165 C-167.97 165.33 -170.94 165.66 -174 166 C-177 160.25 -177 160.25 -177 158 C-177.8971875 157.6596875 -177.8971875 157.6596875 -178.8125 157.3125 C-181.62145259 155.62712845 -182.54617639 153.90764721 -184 151 C-184.144375 150.278125 -184.28875 149.55625 -184.4375 148.8125 C-184.623125 148.214375 -184.80875 147.61625 -185 147 C-185.61875 146.71125 -186.2375 146.4225 -186.875 146.125 C-190.0049038 144.46799211 -190.69218815 142.20413903 -192 139 C-192 138.01 -192 137.02 -192 136 C-192.66 136 -193.32 136 -194 136 C-194.32043541 128.21460633 -194.24041656 122.12891642 -191 115 C-190.64194537 113.67309165 -190.30217931 112.34073732 -190 111 C-189.34 111 -188.68 111 -188 111 C-188 109.68 -188 108.36 -188 107 C-187.34 107 -186.68 107 -186 107 C-185.87753906 106.30519531 -185.75507813 105.61039063 -185.62890625 104.89453125 C-184.9414143 101.73036021 -183.98142199 98.75191616 -182.9375 95.6875 C-182.57527344 94.61886719 -182.21304688 93.55023437 -181.83984375 92.44921875 C-181.56269531 91.64097656 -181.28554687 90.83273437 -181 90 C-180.34 90 -179.68 90 -179 90 C-178.67 87.03 -178.34 84.06 -178 81 C-177.34 81 -176.68 81 -176 81 C-176 79.68 -176 78.36 -176 77 C-175.34 77 -174.68 77 -174 77 C-174 75.68 -174 74.36 -174 73 C-173.34 73 -172.68 73 -172 73 C-171.87625 71.783125 -171.7525 70.56625 -171.625 69.3125 C-171.21108694 65.93520941 -170.45426549 63.10243305 -169 60 C-168.34 60 -167.68 60 -167 60 C-167.061875 59.34 -167.12375 58.68 -167.1875 58 C-166.93182247 53.90915946 -165.54304956 50.79333016 -164 47 C-163.34 47 -162.68 47 -162 47 C-162 45.68 -162 44.36 -162 43 C-161.34 43 -160.68 43 -160 43 C-159.67 40.03 -159.34 37.06 -159 34 C-158.34 34 -157.68 34 -157 34 C-156.855625 33.071875 -156.71125 32.14375 -156.5625 31.1875 C-156 28 -156 28 -155 25 C-154.34 25 -153.68 25 -153 25 C-152.9175 24.01 -152.835 23.02 -152.75 22 C-152.13691993 17.52543052 -150.18031955 13.90429315 -148 10 C-142.25 10.875 -142.25 10.875 -140 12 C-140 12.66 -140 13.32 -140 14 C-137.34771188 15.07525194 -134.71631546 16.09456151 -132 17 C-132 17.66 -132 18.32 -132 19 C-130.68 19 -129.36 19 -128 19 C-128 19.66 -128 20.32 -128 21 C-127.01 21 -126.02 21 -125 21 C-125 21.66 -125 22.32 -125 23 C-124.29875 23.103125 -123.5975 23.20625 -122.875 23.3125 C-120 24 -120 24 -117.1875 25.4375 C-113.46729129 27.26113172 -110.03538286 28.09551763 -106 29 C-106 29.66 -106 30.32 -106 31 C-90.655 30.505 -90.655 30.505 -75 30 C-75 29.34 -75 28.68 -75 28 C-73.35 28 -71.7 28 -70 28 C-70 27.34 -70 26.68 -70 26 C-69.35933594 25.89042969 -68.71867187 25.78085937 -68.05859375 25.66796875 C-63.87636601 24.90133088 -59.95022626 24.1353224 -56.0625 22.375 C-53 21 -53 21 -50 21 C-50 20.34 -50 19.68 -50 19 C-49.35933594 18.81824219 -48.71867188 18.63648438 -48.05859375 18.44921875 C-43.96000943 17.25812495 -39.95858643 16.0682471 -36.0625 14.3125 C-33 13 -33 13 -30 13 C-30 12.34 -30 11.68 -30 11 C-28.89591797 10.60167969 -28.89591797 10.60167969 -27.76953125 10.1953125 C-26.79371094 9.84210937 -25.81789063 9.48890625 -24.8125 9.125 C-23.84957031 8.77695312 -22.88664063 8.42890625 -21.89453125 8.0703125 C-20.02174072 7.37780966 -18.16295037 6.64562863 -16.32421875 5.8671875 C-14 5 -14 5 -11 5 C-11 4.34 -11 3.68 -11 3 C-9.73160474 2.49384702 -8.46016898 1.99530901 -7.1875 1.5 C-6.12595703 1.08234375 -6.12595703 1.08234375 -5.04296875 0.65625 C-3 0 -3 0 0 0 Z " fill="#FDFDFC" transform="translate(321,515)"/>
<path d="M0 0 C5.04120936 1.26030234 6.93780125 2.88187064 10 7 C10.99 7.33 11.98 7.66 13 8 C14.23726072 9.49773666 15.47228309 10.9976233 16.6796875 12.51953125 C18.49238109 14.55210779 20.65045106 15.64900936 23 17 C24.66666667 18.66666667 26.33333333 20.33333333 28 22 C28.78375 22.45375 29.5675 22.9075 30.375 23.375 C33.47754711 25.2956244 35.68205373 27.62032193 38.15625 30.28125 C39.9690473 32.10382559 39.9690473 32.10382559 42.3828125 33.35546875 C45.61080468 35.38380414 47.89819753 37.96527309 50.375 40.8125 C57.21983606 48.48865213 57.21983606 48.48865213 65.5625 54.4375 C68.56504625 56.36220914 70.45417828 58.70786413 72.66796875 61.4765625 C73.94364001 63.12972374 73.94364001 63.12972374 76 64 C76 65.32 76 66.64 76 68 C73.36 68.33 70.72 68.66 68 69 C68 69.66 68 70.32 68 71 C67.01 71 66.02 71 65 71 C65 71.66 65 72.32 65 73 C62.525 73.495 62.525 73.495 60 74 C60 74.66 60 75.32 60 76 C55.545 76.495 55.545 76.495 51 77 C51 77.66 51 78.32 51 79 C49.35 79 47.7 79 46 79 C46 79.66 46 80.32 46 81 C44.44033782 81.508783 42.87710759 82.00663469 41.3125 82.5 C40.44238281 82.7784375 39.57226562 83.056875 38.67578125 83.34375 C36.00608323 83.99850805 33.73603316 84.11831495 31 84 C31 84.66 31 85.32 31 86 C28.03 86 25.06 86 22 86 C21.87882813 85.19175781 21.75765625 84.38351562 21.6328125 83.55078125 C21.46523438 82.48214844 21.29765625 81.41351563 21.125 80.3125 C20.96257813 79.25675781 20.80015625 78.20101562 20.6328125 77.11328125 C20.03985506 74.19607703 19.11346165 71.74653873 18 69 C17.875 65.6875 17.875 65.6875 18 63 C17.34 63 16.68 63 16 63 C15.86722656 62.28972656 15.73445312 61.57945312 15.59765625 60.84765625 C15.33275391 59.46900391 15.33275391 59.46900391 15.0625 58.0625 C14.88847656 57.14597656 14.71445312 56.22945313 14.53515625 55.28515625 C14.22285012 53.04710156 14.22285012 53.04710156 13 52 C12.95919217 50.00041636 12.95745644 47.99954746 13 46 C12.34 46 11.68 46 11 46 C10.87882813 45.34773438 10.75765625 44.69546875 10.6328125 44.0234375 C9.89290288 40.16452427 9.1623819 36.46910327 7.875 32.75 C6.90534856 29.70252404 6.84864492 27.17845661 7 24 C6.34 24 5.68 24 5 24 C4.67 20.04 4.34 16.08 4 12 C3.34 12 2.68 12 2 12 C2 10.02 2 8.04 2 6 C1.34 6 0.68 6 0 6 C0 4.02 0 2.04 0 0 Z " fill="#F9F9F8" transform="translate(574,369)"/>
<path d="M0 0 C4.65394781 -0.32469403 7.23358918 0.20209482 11 3 C11.33 3.66 11.66 4.32 12 5 C12.99 5.33 13.98 5.66 15 6 C15 6.66 15 7.32 15 8 C15.99 8 16.98 8 18 8 C18 8.66 18 9.32 18 10 C18.53625 10.12375 19.0725 10.2475 19.625 10.375 C22.4638286 11.12206016 25.22223202 12.05303364 28 13 C28 13.66 28 14.32 28 15 C28.598125 15.144375 29.19625 15.28875 29.8125 15.4375 C31.56150404 15.8872439 33.28677023 16.42892341 35 17 C35 17.66 35 18.32 35 19 C35.94875 19.144375 36.8975 19.28875 37.875 19.4375 C41 20 41 20 43 21 C43 21.66 43 22.32 43 23 C44.65 23.33 46.3 23.66 48 24 C48 24.66 48 25.32 48 26 C49.98 26.66 51.96 27.32 54 28 C54 28.66 54 29.32 54 30 C54.9590625 30.2165625 54.9590625 30.2165625 55.9375 30.4375 C58 31 58 31 59 32 C66.02939971 32.79879542 72.4427586 30.36630885 79 28 C79.495 27.505 79.495 27.505 80 27 C81.66617115 26.95936168 83.33388095 26.957279 85 27 C85 26.34 85 25.68 85 25 C89.62 24.67 94.24 24.34 99 24 C99 23.34 99 22.68 99 22 C100.98 22 102.96 22 105 22 C105 23.65 105 25.3 105 27 C103.68 27 102.36 27 101 27 C101 27.66 101 28.32 101 29 C99.68 29 98.36 29 97 29 C97 29.66 97 30.32 97 31 C94.27229834 31.98341615 91.54297895 32.96185053 88.8125 33.9375 C88.04357422 34.21529297 87.27464844 34.49308594 86.48242188 34.77929688 C82.67664634 36.13500232 79.0067636 37.36566268 75 38 C75 38.66 75 39.32 75 40 C73.58603098 40.50757862 72.16868271 41.00574925 70.75 41.5 C69.96109375 41.7784375 69.1721875 42.056875 68.359375 42.34375 C66 43 66 43 62 43 C62 43.66 62 44.32 62 45 C58.9973835 45.36238475 56.91105904 45.61063806 54 45 C52.14397821 43.4054501 50.82446308 41.70360166 49.3671875 39.7421875 C47.57657522 37.46043585 45.53518446 36.36509932 43 35 C42.236875 34.360625 41.47375 33.72125 40.6875 33.0625 C37.34739613 30.49916447 33.80273416 28.7739802 30 27 C30 26.34 30 25.68 30 25 C29.401875 24.87625 28.80375 24.7525 28.1875 24.625 C26 24 26 24 23 22 C23 21.34 23 20.68 23 20 C22.05125 19.9175 21.1025 19.835 20.125 19.75 C19.09375 19.5025 18.0625 19.255 17 19 C16.30062468 17.68352881 15.63270867 16.34977849 15 15 C14.26523438 14.89300781 13.53046875 14.78601563 12.7734375 14.67578125 C9.0242224 13.76224011 7.38122866 11.91315434 4.6875 9.1875 C3.80449219 8.31480469 2.92148438 7.44210937 2.01171875 6.54296875 C0 4 0 4 0 0 Z " fill="#F1F0EF" transform="translate(168,491)"/>
<path d="M0 0 C1.98 0 3.96 0 6 0 C6 0.66 6 1.32 6 2 C7.65 2.33 9.3 2.66 11 3 C11 3.66 11 4.32 11 5 C11.928125 5.28875 12.85625 5.5775 13.8125 5.875 C17 7 17 7 20 9 C20 9.66 20 10.32 20 11 C20.804375 11.12375 21.60875 11.2475 22.4375 11.375 C23.283125 11.58125 24.12875 11.7875 25 12 C25.33 12.66 25.66 13.32 26 14 C26.99 14.33 27.98 14.66 29 15 C29 15.66 29 16.32 29 17 C29.804375 17.12375 30.60875 17.2475 31.4375 17.375 C32.7059375 17.684375 32.7059375 17.684375 34 18 C34.495 18.99 34.495 18.99 35 20 C35.61875 20.12375 36.2375 20.2475 36.875 20.375 C39.70279867 21.20670549 40.27692837 22.65662259 42 25 C43.65532623 26.01866229 45.32260138 27.01810813 47 28 C48.33333333 29.33333333 49.66666667 30.66666667 51 32 C51.99 32.33 52.98 32.66 54 33 C55.33895632 34.66215268 56.67130142 36.32963607 58 38 C59.44842699 39.19092886 60.89794193 40.38072442 62.36328125 41.55078125 C64.92866991 43.82228291 67.04267588 46.4601742 69.25390625 49.0703125 C70.8837167 50.87149004 72.53981973 52.36578604 74.4375 53.875 C75.7059375 54.926875 75.7059375 54.926875 77 56 C77 56.66 77 57.32 77 58 C78.32 58 79.64 58 81 58 C83.93524466 60.77217551 84.94334752 62.24935462 85.25 66.3125 C85.1675 67.199375 85.085 68.08625 85 69 C78.375 69.125 78.375 69.125 75 68 C73.3515625 66.2578125 73.3515625 66.2578125 71.625 64.125 C68.98553602 60.9867838 66.62517635 58.97736892 63 57 C63 56.34 63 55.68 63 55 C61.68 54.34 60.36 53.68 59 53 C59 52.34 59 51.68 59 51 C58.29875 50.7525 57.5975 50.505 56.875 50.25 C48.88888889 46.77777778 48.88888889 46.77777778 47 43 C46.2575 42.7525 45.515 42.505 44.75 42.25 C41.10928048 40.59512749 39.50917717 38.07374204 37 35 C35.35178756 33.96986723 33.68496298 32.96885372 32 32 C30.33333333 30.33333333 28.66666667 28.66666667 27 27 C26.36320313 26.70351563 25.72640625 26.40703125 25.0703125 26.1015625 C22.54369459 24.75721108 21.23447125 23.15255852 19.4375 20.9375 C16.81717494 17.66415861 16.81717494 17.66415861 13 16 C13 15.34 13 14.68 13 14 C12.4225 13.938125 11.845 13.87625 11.25 13.8125 C8.08035652 12.66790652 7.00579772 10.67439695 5 8 C4.0925 7.13375 3.185 6.2675 2.25 5.375 C0 3 0 3 0 0 Z " fill="#F4F3F1" transform="translate(571,340)"/>
<path d="M0 0 C2.97 0.495 2.97 0.495 6 1 C6 1.66 6 2.32 6 3 C6.66 3.103125 7.32 3.20625 8 3.3125 C11.83841009 4.19213564 15.33096691 5.56969896 19 7 C19 7.66 19 8.32 19 9 C19.515625 9.12375 20.03125 9.2475 20.5625 9.375 C24.7508271 10.44893002 28.89804566 11.63268189 33 13 C33 13.66 33 14.32 33 15 C35.31 15.33 37.62 15.66 40 16 C40 16.66 40 17.32 40 18 C41.98 18.33 43.96 18.66 46 19 C46 19.66 46 20.32 46 21 C48.31 21.33 50.62 21.66 53 22 C53 22.66 53 23.32 53 24 C53.66 24 54.32 24 55 24 C55 24.66 55 25.32 55 26 C55.969375 26.268125 56.93875 26.53625 57.9375 26.8125 C58.948125 27.204375 59.95875 27.59625 61 28 C61.495 29.485 61.495 29.485 62 31 C63.32 31 64.64 31 66 31 C66 31.99 66 32.98 66 34 C66.99 34 67.98 34 69 34 C69 34.66 69 35.32 69 36 C69.556875 36.103125 70.11375 36.20625 70.6875 36.3125 C73.4769101 37.14178408 75.6139064 38.34299056 78 40 C78 40.66 78 41.32 78 42 C78.763125 42.268125 79.52625 42.53625 80.3125 42.8125 C82.92313504 43.96603641 84.07385089 44.98629865 86 47 C87.485 47.495 87.485 47.495 89 48 C88.01 50.97 88.01 50.97 87 54 C83.7 53.34 80.4 52.68 77 52 C77 51.34 77 50.68 77 50 C76.46890625 49.88785156 75.9378125 49.77570313 75.390625 49.66015625 C72.38949642 48.83141323 69.61591837 47.65240018 66.75 46.4375 C65.67234375 45.98246094 64.5946875 45.52742188 63.484375 45.05859375 C62.66453125 44.70925781 61.8446875 44.35992187 61 44 C61 43.34 61 42.68 61 42 C60.01 42 59.02 42 58 42 C58 41.34 58 40.68 58 40 C57.278125 39.731875 56.55625 39.46375 55.8125 39.1875 C53.00233617 38.00098638 50.51583443 36.72514361 48 35 C48 34.34 48 33.68 48 33 C47.1646875 32.8453125 47.1646875 32.8453125 46.3125 32.6875 C43.5230899 31.85821592 41.3860936 30.65700944 39 29 C39 28.34 39 27.68 39 27 C37.35 26.67 35.7 26.34 34 26 C34 25.34 34 24.68 34 24 C33.01 24 32.02 24 31 24 C31 23.34 31 22.68 31 22 C30.484375 21.9175 29.96875 21.835 29.4375 21.75 C24.87935558 20.34749403 20.94532445 17.6302163 17 15 C17 14.34 17 13.68 17 13 C16.31550781 12.90847656 15.63101563 12.81695312 14.92578125 12.72265625 C11.29943637 11.82696359 8.44952692 10.24973718 5.1875 8.4375 C4.59001953 8.10814453 3.99253906 7.77878906 3.37695312 7.43945312 C1.91466002 6.63226733 0.4568601 5.81695083 -1 5 C-0.67 3.35 -0.34 1.7 0 0 Z " fill="#F2F2F1" transform="translate(230,328)"/>
<path d="M0 0 C0.33 0.99 0.66 1.98 1 3 C3.23139765 4.08668438 3.23139765 4.08668438 6 5 C8.21547449 5.96289993 10.42351334 6.94303534 12.625 7.9375 C13.75164062 8.44152344 14.87828125 8.94554687 16.0390625 9.46484375 C18.65663461 10.82197547 20.05695242 11.8782151 22 14 C23.66958032 15.11841509 23.66958032 15.11841509 25.4375 16.0625 C26.0459375 16.39894531 26.654375 16.73539062 27.28125 17.08203125 C29.17060187 18.09111691 31.06888137 19.07306306 33 20 C33 20.66 33 21.32 33 22 C33.99 22 34.98 22 36 22 C36 22.66 36 23.32 36 24 C36.763125 24.103125 37.52625 24.20625 38.3125 24.3125 C41.31899016 25.08160213 41.9122387 25.82872825 44 28 C45.97620986 29.04622875 47.9737129 30.05439935 50 31 C50 31.66 50 32.32 50 33 C50.721875 33.268125 51.44375 33.53625 52.1875 33.8125 C54.99766383 34.99901362 57.48416557 36.27485639 60 38 C60 38.66 60 39.32 60 40 C60.99 40 61.98 40 63 40 C63 40.66 63 41.32 63 42 C63.8353125 42.185625 63.8353125 42.185625 64.6875 42.375 C67.22114364 43.05976855 69.57921032 43.99133763 72 45 C69 46 69 46 66 45 C66 45.66 66 46.32 66 47 C65.01 47 64.02 47 63 47 C63 46.34 63 45.68 63 45 C61.35 44.67 59.7 44.34 58 44 C58 43.34 58 42.68 58 42 C57.01 42 56.02 42 55 42 C55 41.34 55 40.68 55 40 C54.154375 39.773125 53.30875 39.54625 52.4375 39.3125 C49.04225951 38.01613545 46.79929492 36.52818609 43.94140625 34.3671875 C41.05252843 32.3327665 37.95095162 30.74227483 34.8203125 29.11328125 C33 28 33 28 32 26 C31.01 25.67 30.02 25.34 29 25 C29 24.34 29 23.68 29 23 C27.68 22.67 26.36 22.34 25 22 C25 21.34 25 20.68 25 20 C23.02 19.34 21.04 18.68 19 18 C19 17.34 19 16.68 19 16 C17.68 15.67 16.36 15.34 15 15 C15 14.34 15 13.68 15 13 C13.63875 12.8453125 13.63875 12.8453125 12.25 12.6875 C8.92070026 11.98322506 7.56280941 11.12094572 5 9 C4.01 8.67 3.02 8.34 2 8 C2 7.34 2 6.68 2 6 C1.01 5.67 0.02 5.34 -1 5 C-0.67 3.35 -0.34 1.7 0 0 Z " fill="#1C1C1C" transform="translate(228,330)"/>
<path d="M0 0 C2.97 0.495 2.97 0.495 6 1 C6 1.66 6 2.32 6 3 C6.66 3.103125 7.32 3.20625 8 3.3125 C11.83841009 4.19213564 15.33096691 5.56969896 19 7 C19 7.66 19 8.32 19 9 C19.9590625 9.1546875 19.9590625 9.1546875 20.9375 9.3125 C21.618125 9.539375 22.29875 9.76625 23 10 C24.04449911 13.13349732 23.93423645 13.98968256 23 17 C21.35 16.67 19.7 16.34 18 16 C17.67 15.01 17.34 14.02 17 13 C16.31550781 12.90847656 15.63101563 12.81695312 14.92578125 12.72265625 C11.29943637 11.82696359 8.44952692 10.24973718 5.1875 8.4375 C4.59001953 8.10814453 3.99253906 7.77878906 3.37695312 7.43945312 C1.91466002 6.63226733 0.4568601 5.81695083 -1 5 C-0.67 3.35 -0.34 1.7 0 0 Z " fill="#ECEBEA" transform="translate(230,328)"/>
<path d="M0 0 C0.66 0 1.32 0 2 0 C2 0.66 2 1.32 2 2 C8.93 2.495 8.93 2.495 16 3 C16 3.33 16 3.66 16 4 C11.1666528 4.08333357 6.76307437 3.95261487 2 3 C2 4.65 2 6.3 2 8 C0.23537317 4.91190305 0 3.76687864 0 0 Z " fill="#4A4848" transform="translate(76,409)"/>
<path d="M0 0 C0.33 0.99 0.66 1.98 1 3 C3.00016466 4.20882096 3.00016466 4.20882096 5 5 C5 5.66 5 6.32 5 7 C2.5625 6.625 2.5625 6.625 0 6 C-1.24546405 3.50907189 -0.7767578 2.58919267 0 0 Z " fill="#141414" transform="translate(228,330)"/>
<path d="M0 0 C0.99 0.33 1.98 0.66 3 1 C1.35 2.98 -0.3 4.96 -2 7 C-2.66 6.67 -3.32 6.34 -4 6 C-3.34 4.68 -2.68 3.36 -2 2 C-1.34 2 -0.68 2 0 2 C0 1.34 0 0.68 0 0 Z " fill="#C8C7C6" transform="translate(741,468)"/>
</svg>
